<mxfile host="app.diagrams.net" modified="2022-01-18T12:58:55.595Z" agent="5.0 (X11; Linux x86_64) AppleWebKit/537.36 (KHTML, like Gecko) Chrome/96.0.4664.110 Safari/537.36 Edg/96.0.1054.62" etag="lDse7mS5BeVwK0sdM6Lq" version="16.2.7" type="github">
  <diagram name="Page-1" id="b5b7bab2-c9e2-2cf4-8b2a-24fd1a2a6d21">
    <mxGraphModel dx="545" dy="339" grid="1" gridSize="10" guides="1" tooltips="1" connect="1" arrows="1" fold="1" page="1" pageScale="1" pageWidth="827" pageHeight="1169" background="none" math="0" shadow="0">
      <root>
        <mxCell id="0" />
        <mxCell id="1" parent="0" />
        <mxCell id="49-tiQ74uWVZ-QoZg_Vz-1" value="" style="rounded=1;whiteSpace=wrap;html=1;fillColor=#f5f5f5;strokeColor=#666666;fontColor=#333333;" vertex="1" parent="1">
          <mxGeometry x="300" y="160" width="210" height="370" as="geometry" />
        </mxCell>
        <mxCell id="49-tiQ74uWVZ-QoZg_Vz-15" style="rounded=0;orthogonalLoop=1;jettySize=auto;html=1;exitX=0.5;exitY=0.5;exitDx=0;exitDy=0;exitPerimeter=0;endArrow=none;endFill=0;" edge="1" parent="1" source="49-tiQ74uWVZ-QoZg_Vz-3" target="49-tiQ74uWVZ-QoZg_Vz-10">
          <mxGeometry relative="1" as="geometry" />
        </mxCell>
        <mxCell id="49-tiQ74uWVZ-QoZg_Vz-17" style="edgeStyle=none;rounded=0;orthogonalLoop=1;jettySize=auto;html=1;exitX=0.5;exitY=0.5;exitDx=0;exitDy=0;exitPerimeter=0;entryX=0;entryY=0.5;entryDx=0;entryDy=0;endArrow=none;endFill=0;" edge="1" parent="1" source="49-tiQ74uWVZ-QoZg_Vz-3" target="49-tiQ74uWVZ-QoZg_Vz-8">
          <mxGeometry relative="1" as="geometry" />
        </mxCell>
        <mxCell id="49-tiQ74uWVZ-QoZg_Vz-18" style="edgeStyle=none;rounded=0;orthogonalLoop=1;jettySize=auto;html=1;exitX=0.5;exitY=0.5;exitDx=0;exitDy=0;exitPerimeter=0;entryX=0;entryY=0.5;entryDx=0;entryDy=0;endArrow=none;endFill=0;" edge="1" parent="1" source="49-tiQ74uWVZ-QoZg_Vz-3" target="49-tiQ74uWVZ-QoZg_Vz-9">
          <mxGeometry relative="1" as="geometry" />
        </mxCell>
        <mxCell id="49-tiQ74uWVZ-QoZg_Vz-3" value="Cliente" style="shape=umlActor;verticalLabelPosition=bottom;verticalAlign=top;html=1;outlineConnect=0;fillColor=#dae8fc;strokeColor=#6c8ebf;" vertex="1" parent="1">
          <mxGeometry x="220" y="280" width="30" height="60" as="geometry" />
        </mxCell>
        <mxCell id="49-tiQ74uWVZ-QoZg_Vz-5" value="Cajero Automatico" style="text;html=1;strokeColor=none;fillColor=none;align=center;verticalAlign=middle;whiteSpace=wrap;rounded=0;" vertex="1" parent="1">
          <mxGeometry x="375" y="170" width="60" height="30" as="geometry" />
        </mxCell>
        <mxCell id="49-tiQ74uWVZ-QoZg_Vz-8" value="Realiza consultas" style="ellipse;whiteSpace=wrap;html=1;" vertex="1" parent="1">
          <mxGeometry x="363.75" y="330" width="82.5" height="50" as="geometry" />
        </mxCell>
        <mxCell id="49-tiQ74uWVZ-QoZg_Vz-9" value="Retira dinero" style="ellipse;whiteSpace=wrap;html=1;" vertex="1" parent="1">
          <mxGeometry x="363.75" y="390" width="82.5" height="50" as="geometry" />
        </mxCell>
        <mxCell id="49-tiQ74uWVZ-QoZg_Vz-10" value="Ingresa tarjeta" style="ellipse;whiteSpace=wrap;html=1;" vertex="1" parent="1">
          <mxGeometry x="366.25" y="210" width="77.5" height="50" as="geometry" />
        </mxCell>
        <mxCell id="49-tiQ74uWVZ-QoZg_Vz-22" style="edgeStyle=none;rounded=0;orthogonalLoop=1;jettySize=auto;html=1;entryX=1.003;entryY=0.592;entryDx=0;entryDy=0;entryPerimeter=0;endArrow=none;endFill=0;" edge="1" parent="1" source="49-tiQ74uWVZ-QoZg_Vz-12" target="49-tiQ74uWVZ-QoZg_Vz-19">
          <mxGeometry relative="1" as="geometry" />
        </mxCell>
        <mxCell id="49-tiQ74uWVZ-QoZg_Vz-12" value="Servicio de Cajeros" style="shape=umlActor;verticalLabelPosition=bottom;verticalAlign=top;html=1;outlineConnect=0;fillColor=#fff2cc;strokeColor=#d6b656;" vertex="1" parent="1">
          <mxGeometry x="590" y="290" width="30" height="60" as="geometry" />
        </mxCell>
        <mxCell id="49-tiQ74uWVZ-QoZg_Vz-19" value="Verifica el PIN" style="ellipse;whiteSpace=wrap;html=1;" vertex="1" parent="1">
          <mxGeometry x="366.25" y="270" width="77.5" height="50" as="geometry" />
        </mxCell>
        <mxCell id="49-tiQ74uWVZ-QoZg_Vz-20" value="Verifica si tiene dinero suficiente" style="ellipse;whiteSpace=wrap;html=1;" vertex="1" parent="1">
          <mxGeometry x="363.75" y="450" width="82.5" height="50" as="geometry" />
        </mxCell>
        <mxCell id="49-tiQ74uWVZ-QoZg_Vz-24" value="" style="endArrow=none;dashed=1;html=1;dashPattern=1 3;strokeWidth=2;rounded=0;entryX=1;entryY=0.5;entryDx=0;entryDy=0;exitX=0.994;exitY=0.634;exitDx=0;exitDy=0;exitPerimeter=0;startArrow=classic;startFill=1;" edge="1" parent="1" source="49-tiQ74uWVZ-QoZg_Vz-19" target="49-tiQ74uWVZ-QoZg_Vz-10">
          <mxGeometry width="50" height="50" relative="1" as="geometry">
            <mxPoint x="443.75" y="280" as="sourcePoint" />
            <mxPoint x="493.75" y="230" as="targetPoint" />
            <Array as="points">
              <mxPoint x="490" y="302" />
              <mxPoint x="490" y="235" />
            </Array>
          </mxGeometry>
        </mxCell>
        <mxCell id="49-tiQ74uWVZ-QoZg_Vz-26" value="" style="endArrow=none;dashed=1;html=1;dashPattern=1 3;strokeWidth=2;rounded=0;entryX=1;entryY=0.5;entryDx=0;entryDy=0;exitX=1;exitY=0.5;exitDx=0;exitDy=0;startArrow=classic;startFill=1;" edge="1" parent="1" source="49-tiQ74uWVZ-QoZg_Vz-20" target="49-tiQ74uWVZ-QoZg_Vz-9">
          <mxGeometry width="50" height="50" relative="1" as="geometry">
            <mxPoint x="480" y="480" as="sourcePoint" />
            <mxPoint x="500" y="400" as="targetPoint" />
            <Array as="points">
              <mxPoint x="480" y="475" />
              <mxPoint x="480" y="415" />
            </Array>
          </mxGeometry>
        </mxCell>
        <mxCell id="49-tiQ74uWVZ-QoZg_Vz-29" value="include&lt;br&gt;" style="text;html=1;strokeColor=none;fillColor=none;align=center;verticalAlign=middle;whiteSpace=wrap;rounded=0;" vertex="1" parent="1">
          <mxGeometry x="450" y="250" width="60" height="30" as="geometry" />
        </mxCell>
        <mxCell id="49-tiQ74uWVZ-QoZg_Vz-30" value="include&lt;br&gt;" style="text;html=1;strokeColor=none;fillColor=none;align=center;verticalAlign=middle;whiteSpace=wrap;rounded=0;" vertex="1" parent="1">
          <mxGeometry x="450" y="430" width="60" height="30" as="geometry" />
        </mxCell>
        <mxCell id="49-tiQ74uWVZ-QoZg_Vz-31" value="" style="edgeStyle=none;rounded=0;orthogonalLoop=1;jettySize=auto;html=1;entryX=0.984;entryY=0.404;entryDx=0;entryDy=0;endArrow=none;endFill=0;entryPerimeter=0;" edge="1" parent="1" source="49-tiQ74uWVZ-QoZg_Vz-12" target="49-tiQ74uWVZ-QoZg_Vz-20">
          <mxGeometry relative="1" as="geometry">
            <mxPoint x="590" y="334.64566929133855" as="sourcePoint" />
            <mxPoint x="446.25" y="475" as="targetPoint" />
          </mxGeometry>
        </mxCell>
      </root>
    </mxGraphModel>
  </diagram>
</mxfile>
